<svg width="293" height="293" viewBox="0 0 293 293" fill="none" xmlns="http://www.w3.org/2000/svg">
<path d="M0 292.7C15.7566 258.781 31.5132 224.862 44.323 189.801C57.1929 154.8 67.1159 118.716 89.0068 89.0068C110.898 59.2977 144.756 36.0237 180.66 22.2517C216.623 8.47968 254.632 4.20977 292.7 -1.59426e-05L292.7 280.7C292.7 287.327 287.327 292.7 280.7 292.7L0 292.7Z" fill="#24EDFF"/>
<path d="M97.5466 292.7C108.071 270.087 118.535 247.475 127.135 224.141C135.675 200.746 142.291 176.69 156.905 156.905C171.518 137.119 194.071 121.603 218.006 112.401C242.002 103.2 267.321 100.373 292.7 97.5466L292.7 280.7C292.7 287.327 287.327 292.7 280.7 292.7L97.5466 292.7Z" fill="#DE2BAE"/>
<path d="M195.153 292.7C200.386 281.394 205.618 270.087 209.888 258.42C214.218 246.753 217.525 234.725 224.802 224.802C232.079 214.879 243.385 207.121 255.353 202.551C267.321 197.98 280.01 196.537 292.7 195.153L292.7 280.7C292.7 287.327 287.327 292.7 280.7 292.7L195.153 292.7Z" fill="#FEBE58"/>
</svg>
