<svg width="312" height="312" viewBox="0 0 312 312" fill="none" xmlns="http://www.w3.org/2000/svg">
<path d="M312 8.76222e-06C289.179 34.1681 266.293 68.3362 251.677 104.235C237.125 140.134 230.843 177.764 210.778 210.778C190.713 243.792 156.865 272.191 119.428 288.281C81.9906 304.371 40.9632 308.218 1.52588e-05 312L1.62084e-06 2.24002e-05L312 8.76222e-06Z" fill="#24EDFF"/>
<path d="M208.021 1.13217e-05C192.764 22.7574 177.507 45.5788 167.827 69.49C158.083 93.4654 153.917 118.531 140.519 140.519C127.121 162.507 104.556 181.418 79.6187 192.187C54.6817 202.893 27.3088 205.457 7.62939e-06 208.021L-1.46351e-06 2.04146e-05L208.021 1.13217e-05Z" fill="#DE2BAE"/>
<path d="M103.979 1.47205e-05C96.4142 11.4107 88.7857 22.7574 83.9137 34.745C79.0417 46.7327 76.9262 59.2332 70.2593 70.2593C63.5924 81.2854 52.3098 90.7089 39.8093 96.0937C27.3088 101.479 13.6544 102.761 7.62939e-06 103.979L3.08434e-06 1.92655e-05L103.979 1.47205e-05Z" fill="#FEBE58"/>
</svg>
